<svg id="visual" viewBox="0 0 900 600" width="900" height="600" xmlns="http://www.w3.org/2000/svg" xmlns:xlink="http://www.w3.org/1999/xlink" version="1.1"><g stroke-width="1" stroke-linejoin="bevel"><path d="M411 324L408 378L505 320Z" fill="#15384f" stroke="#15384f"></path><path d="M408 378L539 425L505 320Z" fill="#297ea6" stroke="#297ea6"></path><path d="M408 378L462 488L539 425Z" fill="#205a7a" stroke="#205a7a"></path><path d="M628 471L597 432L539 425Z" fill="#00101c" stroke="#00101c"></path><path d="M539 425L626 300L505 320Z" fill="#297ea6" stroke="#297ea6"></path><path d="M626 300L527 201L505 320Z" fill="#00101c" stroke="#00101c"></path><path d="M505 320L527 201L411 324Z" fill="#15384f" stroke="#15384f"></path><path d="M377 188L337 230L411 324Z" fill="#19435d" stroke="#19435d"></path><path d="M411 324L270 310L408 378Z" fill="#15384f" stroke="#15384f"></path><path d="M597 432L626 300L539 425Z" fill="#19435d" stroke="#19435d"></path><path d="M527 201L377 188L411 324Z" fill="#0c2435" stroke="#0c2435"></path><path d="M316 509L401 530L408 378Z" fill="#1d4e6b" stroke="#1d4e6b"></path><path d="M408 378L401 530L462 488Z" fill="#297ea6" stroke="#297ea6"></path><path d="M462 488L628 471L539 425Z" fill="#246688" stroke="#246688"></path><path d="M337 230L270 310L411 324Z" fill="#00101c" stroke="#00101c"></path><path d="M270 310L273 433L408 378Z" fill="#081a28" stroke="#081a28"></path><path d="M503 600L628 471L462 488Z" fill="#00101c" stroke="#00101c"></path><path d="M597 432L715 380L626 300Z" fill="#112e42" stroke="#112e42"></path><path d="M273 433L316 509L408 378Z" fill="#205a7a" stroke="#205a7a"></path><path d="M626 300L597 181L527 201Z" fill="#15384f" stroke="#15384f"></path><path d="M527 201L470 96L377 188Z" fill="#19435d" stroke="#19435d"></path><path d="M320 600L424 600L401 530Z" fill="#1d4e6b" stroke="#1d4e6b"></path><path d="M401 530L424 600L462 488Z" fill="#205a7a" stroke="#205a7a"></path><path d="M424 600L503 600L462 488Z" fill="#205a7a" stroke="#205a7a"></path><path d="M628 471L715 380L597 432Z" fill="#19435d" stroke="#19435d"></path><path d="M626 300L686 180L597 181Z" fill="#081a28" stroke="#081a28"></path><path d="M161 215L207 303L270 310Z" fill="#246688" stroke="#246688"></path><path d="M270 310L179 411L273 433Z" fill="#15384f" stroke="#15384f"></path><path d="M161 215L270 310L337 230Z" fill="#246688" stroke="#246688"></path><path d="M605 600L679 488L628 471Z" fill="#205a7a" stroke="#205a7a"></path><path d="M628 471L679 488L715 380Z" fill="#1d4e6b" stroke="#1d4e6b"></path><path d="M597 132L470 96L527 201Z" fill="#277297" stroke="#277297"></path><path d="M377 188L210 129L337 230Z" fill="#112e42" stroke="#112e42"></path><path d="M686 180L597 132L597 181Z" fill="#297ea6" stroke="#297ea6"></path><path d="M597 181L597 132L527 201Z" fill="#15384f" stroke="#15384f"></path><path d="M715 380L715 287L626 300Z" fill="#205a7a" stroke="#205a7a"></path><path d="M316 509L320 600L401 530Z" fill="#297ea6" stroke="#297ea6"></path><path d="M190 514L320 600L316 509Z" fill="#205a7a" stroke="#205a7a"></path><path d="M190 514L316 509L273 433Z" fill="#112e42" stroke="#112e42"></path><path d="M433 0L427 71L495 0Z" fill="#00101c" stroke="#00101c"></path><path d="M470 96L427 71L377 188Z" fill="#277297" stroke="#277297"></path><path d="M715 287L686 180L626 300Z" fill="#205a7a" stroke="#205a7a"></path><path d="M503 600L605 600L628 471Z" fill="#15384f" stroke="#15384f"></path><path d="M207 303L179 411L270 310Z" fill="#112e42" stroke="#112e42"></path><path d="M427 71L331 69L377 188Z" fill="#15384f" stroke="#15384f"></path><path d="M179 411L190 514L273 433Z" fill="#15384f" stroke="#15384f"></path><path d="M715 380L776 292L715 287Z" fill="#297ea6" stroke="#297ea6"></path><path d="M715 287L776 292L686 180Z" fill="#297ea6" stroke="#297ea6"></path><path d="M788 371L776 292L715 380Z" fill="#246688" stroke="#246688"></path><path d="M210 129L161 215L337 230Z" fill="#246688" stroke="#246688"></path><path d="M207 303L98 333L179 411Z" fill="#112e42" stroke="#112e42"></path><path d="M679 488L788 371L715 380Z" fill="#246688" stroke="#246688"></path><path d="M834 510L788 371L679 488Z" fill="#277297" stroke="#277297"></path><path d="M605 600L680 600L679 488Z" fill="#00101c" stroke="#00101c"></path><path d="M331 69L210 129L377 188Z" fill="#1d4e6b" stroke="#1d4e6b"></path><path d="M829 91L681 77L686 180Z" fill="#19435d" stroke="#19435d"></path><path d="M686 180L681 77L597 132Z" fill="#205a7a" stroke="#205a7a"></path><path d="M495 0L427 71L470 96Z" fill="#205a7a" stroke="#205a7a"></path><path d="M495 0L470 96L590 0Z" fill="#19435d" stroke="#19435d"></path><path d="M427 71L433 0L331 69Z" fill="#112e42" stroke="#112e42"></path><path d="M331 69L300 0L210 129Z" fill="#112e42" stroke="#112e42"></path><path d="M210 129L132 217L161 215Z" fill="#00101c" stroke="#00101c"></path><path d="M161 215L132 217L207 303Z" fill="#112e42" stroke="#112e42"></path><path d="M179 411L63 499L190 514Z" fill="#277297" stroke="#277297"></path><path d="M590 0L470 96L597 132Z" fill="#277297" stroke="#277297"></path><path d="M132 217L98 333L207 303Z" fill="#15384f" stroke="#15384f"></path><path d="M190 514L181 600L320 600Z" fill="#277297" stroke="#277297"></path><path d="M137 600L181 600L190 514Z" fill="#081a28" stroke="#081a28"></path><path d="M681 77L590 0L597 132Z" fill="#112e42" stroke="#112e42"></path><path d="M433 0L300 0L331 69Z" fill="#205a7a" stroke="#205a7a"></path><path d="M210 129L76 78L132 217Z" fill="#1d4e6b" stroke="#1d4e6b"></path><path d="M0 313L72 397L98 333Z" fill="#0c2435" stroke="#0c2435"></path><path d="M98 333L72 397L179 411Z" fill="#112e42" stroke="#112e42"></path><path d="M680 600L763 600L679 488Z" fill="#0c2435" stroke="#0c2435"></path><path d="M63 499L137 600L190 514Z" fill="#19435d" stroke="#19435d"></path><path d="M763 600L834 510L679 488Z" fill="#19435d" stroke="#19435d"></path><path d="M900 263L838 188L776 292Z" fill="#112e42" stroke="#112e42"></path><path d="M776 292L838 188L686 180Z" fill="#15384f" stroke="#15384f"></path><path d="M681 77L698 0L590 0Z" fill="#246688" stroke="#246688"></path><path d="M900 263L776 292L788 371Z" fill="#15384f" stroke="#15384f"></path><path d="M72 397L63 499L179 411Z" fill="#112e42" stroke="#112e42"></path><path d="M809 0L698 0L681 77Z" fill="#0c2435" stroke="#0c2435"></path><path d="M834 510L900 398L788 371Z" fill="#19435d" stroke="#19435d"></path><path d="M900 398L900 263L788 371Z" fill="#112e42" stroke="#112e42"></path><path d="M838 188L829 91L686 180Z" fill="#0c2435" stroke="#0c2435"></path><path d="M300 0L180 0L210 129Z" fill="#0c2435" stroke="#0c2435"></path><path d="M132 217L0 313L98 333Z" fill="#277297" stroke="#277297"></path><path d="M900 181L829 91L838 188Z" fill="#1d4e6b" stroke="#1d4e6b"></path><path d="M900 600L900 478L834 510Z" fill="#246688" stroke="#246688"></path><path d="M834 510L900 478L900 398Z" fill="#205a7a" stroke="#205a7a"></path><path d="M0 196L0 313L132 217Z" fill="#1d4e6b" stroke="#1d4e6b"></path><path d="M72 397L0 421L63 499Z" fill="#00101c" stroke="#00101c"></path><path d="M0 313L0 421L72 397Z" fill="#205a7a" stroke="#205a7a"></path><path d="M63 499L0 600L137 600Z" fill="#15384f" stroke="#15384f"></path><path d="M180 0L76 78L210 129Z" fill="#0c2435" stroke="#0c2435"></path><path d="M900 263L900 181L838 188Z" fill="#1d4e6b" stroke="#1d4e6b"></path><path d="M76 78L0 196L132 217Z" fill="#00101c" stroke="#00101c"></path><path d="M0 421L0 536L63 499Z" fill="#246688" stroke="#246688"></path><path d="M900 0L809 0L829 91Z" fill="#00101c" stroke="#00101c"></path><path d="M829 91L809 0L681 77Z" fill="#246688" stroke="#246688"></path><path d="M763 600L900 600L834 510Z" fill="#246688" stroke="#246688"></path><path d="M900 181L900 92L829 91Z" fill="#1d4e6b" stroke="#1d4e6b"></path><path d="M0 536L0 600L63 499Z" fill="#297ea6" stroke="#297ea6"></path><path d="M180 0L75 0L76 78Z" fill="#15384f" stroke="#15384f"></path><path d="M76 78L0 85L0 196Z" fill="#277297" stroke="#277297"></path><path d="M0 0L0 85L76 78Z" fill="#246688" stroke="#246688"></path><path d="M900 92L900 0L829 91Z" fill="#297ea6" stroke="#297ea6"></path><path d="M75 0L0 0L76 78Z" fill="#1d4e6b" stroke="#1d4e6b"></path></g></svg>